HIERARCHY
ROOT Hips
{
	OFFSET -3.958830 18.904000 13.208200
	CHANNELS 6 Xposition Yposition Zposition Zrotation Yrotation Xrotation 
	JOINT LHipJoint
	{
		OFFSET 0.000000 0.000000 0.000000
		CHANNELS 3 Zrotation Yrotation Xrotation
		JOINT LeftUpLeg
		{
			OFFSET 1.800000 -1.400000 0.085000
			CHANNELS 3 Zrotation Yrotation Xrotation
			JOINT LeftLeg
			{
				OFFSET 2.215000 -6.000000 0.000000
				CHANNELS 3 Zrotation Yrotation Xrotation
				JOINT LeftFoot
				{
					OFFSET 2.500000 -6.900000 0.000000
					CHANNELS 3 Zrotation Yrotation Xrotation
					JOINT LeftToeBase
					{
						OFFSET 0.200000 -0.500000 1.950000
						CHANNELS 3 Zrotation Yrotation Xrotation
						End Site
						{
							OFFSET 0.000000 0.000000 0.000000
						}
					}
				}
			}
		}
	}
	JOINT RHipJoint
	{
		OFFSET 0.000000 0.000000 0.000000
		CHANNELS 3 Zrotation Yrotation Xrotation
		JOINT RightUpLeg
		{
			OFFSET -1.800000 -1.400000 0.085000
			CHANNELS 3 Zrotation Yrotation Xrotation
			JOINT RightLeg
			{
				OFFSET -2.215000 -6.000000 0.000000
				CHANNELS 3 Zrotation Yrotation Xrotation
				JOINT RightFoot
				{
					OFFSET -2.500000 -6.900000 0.000000
					CHANNELS 3 Zrotation Yrotation Xrotation
					JOINT RightToeBase
					{
						OFFSET -0.200000 -0.500000 1.950000
						CHANNELS 3 Zrotation Yrotation Xrotation
						End Site
						{
							OFFSET 0.000000 0.000000 0.000000
						}
					}
				}
			}
		}
	}
	JOINT LowerBack
	{
		OFFSET 0.000000 0.000000 0.000000
		CHANNELS 3 Zrotation Yrotation Xrotation
		JOINT Spine
		{
			OFFSET -0.087000 1.940000 -0.288900
			CHANNELS 3 Zrotation Yrotation Xrotation
			JOINT Spine1
			{
				OFFSET 0.000000 1.950000 0.060000
				CHANNELS 3 Zrotation Yrotation Xrotation
				JOINT Neck
				{
					OFFSET 0.000000 0.000000 0.000000
					CHANNELS 3 Zrotation Yrotation Xrotation
					JOINT Neck1
					{
						OFFSET 0.000000 1.600000 0.340000
						CHANNELS 3 Zrotation Yrotation Xrotation
						JOINT Head
						{
							OFFSET 0.000000 1.667000 -0.240000
							CHANNELS 3 Zrotation Yrotation Xrotation
							End Site
							{
								OFFSET 0.000000 0.000000 0.000000
							}
						}
					}
				}
				JOINT LeftShoulder
				{
					OFFSET 0.000000 0.000000 0.000000
					CHANNELS 3 Zrotation Yrotation Xrotation
					JOINT LeftArm
					{
						OFFSET 2.700000 1.550000 -0.730000
						CHANNELS 3 Zrotation Yrotation Xrotation
						JOINT LeftForeArm
						{
							OFFSET 5.450000 0.000000 0.000000
							CHANNELS 3 Zrotation Yrotation Xrotation
							JOINT LeftHand
							{
								OFFSET 3.450000 0.000000 0.000000
								CHANNELS 3 Zrotation Yrotation Xrotation
								JOINT LeftHandIndex1
								{
									OFFSET 0.750000 0.000000 0.000000
									CHANNELS 3 Zrotation Yrotation Xrotation
									End Site
									{
										OFFSET 0.000000 0.000000 0.000000
									}
								}
							}
						}
					}
				}
				JOINT RightShoulder
				{
					OFFSET 0.000000 0.000000 0.000000
					CHANNELS 3 Zrotation Yrotation Xrotation
					JOINT RightArm
					{
						OFFSET -2.700000 1.550000 -0.730000
						CHANNELS 3 Zrotation Yrotation Xrotation
						JOINT RightForeArm
						{
							OFFSET -5.450000 0.000000 0.000000
							CHANNELS 3 Zrotation Yrotation Xrotation
							JOINT RightHand
							{
								OFFSET -3.450000 0.000000 0.000000
								CHANNELS 3 Zrotation Yrotation Xrotation
								JOINT RightHandIndex1
								{
									OFFSET -0.750000 0.000000 0.000000
									CHANNELS 3 Zrotation Yrotation Xrotation
									End Site
									{
										OFFSET 0.000000 0.000000 0.000000
									}
								}
							}
						}
					}
				}
			}
		}
	}
}
MOTION
Frames: 6
Frame Time: 0.016667
-0.706490 17.414960 -0.482660 0.494835 4.573649 -0.553058 -14.999105 11.894257 4.093224 -7.045598 -6.196992 -31.050247 -5.627740 4.490285 15.230337 -0.465080 2.490834 3.612504 0.304690 0.224350 0.177880 18.493682 -11.571770 2.566288 -1.354569 -1.186545 3.849261 3.528517 -7.819638 29.475159 -0.715391 -6.025174 2.314186 0.218930 0.080450 0.093480 -4.217292 0.627751 -7.736040 11.693793 4.832036 14.705861 -5.058936 7.329266 12.699441 4.394907 -1.403442 -10.057264 -3.838262 -2.888615 36.312782 -0.041640 -4.942700 -7.620400 -12.748877 -13.609219 5.726743 -22.953966 -7.642987 -2.144420 -28.560899 -52.923372 12.634066 -3.566495 3.455966 0.122870 0.039400 -0.015170 0.100800 4.089271 18.411570 4.659733 3.829879 16.495015 -4.499969 5.989668 70.343301 4.854507 2.059169 -1.816066 -0.045250 0.133020 -0.042480 -0.041830 
-0.703620 17.444680 -0.416340 0.142642 5.302575 -1.164806 -14.985757 11.988862 4.052231 -6.737675 -6.073902 -30.426809 -5.397553 4.604105 16.215096 -0.447505 2.584859 3.569475 0.334200 0.263230 0.201600 18.489817 -11.591373 2.534927 -1.520857 -0.577393 2.358395 4.087763 -8.590893 33.501974 -0.799096 -6.398084 2.174234 0.234690 0.055570 0.094210 -4.251361 0.541255 -7.734853 12.266943 4.193790 15.341550 -4.967030 6.674874 12.769481 4.281393 -1.626832 -9.960731 -4.226591 -2.667231 36.200594 -0.063900 -4.733730 -8.730930 -13.113380 -13.388516 5.675560 -25.218324 -7.996185 -2.407525 -29.053850 -52.417260 12.462496 -3.549802 3.446014 0.134780 0.021320 0.008600 0.103250 4.655550 18.203250 4.646532 6.743745 17.080038 -4.541587 9.448207 70.635846 6.703395 2.057115 -1.821255 -0.031980 0.133530 -0.059730 -0.043990 
-0.681460 17.479480 -0.288030 -0.216135 5.748103 -1.946807 -14.941130 12.087266 3.981841 -6.157525 -5.907309 -29.313133 -5.382886 4.854450 17.584734 -0.401694 2.773321 3.501553 0.340440 0.270960 0.198560 18.504275 -11.651983 2.486638 -2.552319 1.046313 -1.153067 4.400851 -10.012049 41.675327 -0.968098 -7.289653 1.859879 0.230590 0.049930 0.091710 -4.357959 0.555209 -7.746614 13.118352 3.509764 15.946128 -5.366924 5.978852 12.546247 4.074128 -1.736550 -9.952949 -4.467478 -2.463747 36.625379 0.453920 -4.911380 -8.786360 -14.318933 -13.066218 5.645924 -30.084699 -8.243687 -3.225161 -27.069927 -51.587220 10.812191 -3.532745 3.419194 0.139970 0.009580 0.015970 0.110170 6.198479 17.758932 4.908529 12.825315 17.791928 -4.397341 15.936424 69.421904 9.991095 2.070305 -1.826264 -0.023850 0.131250 -0.067210 -0.038110 
-0.660390 17.493420 -0.139050 -0.606416 6.348929 -2.600407 -14.923558 12.139844 3.916352 -5.184110 -5.898704 -28.804874 -5.876982 5.422726 19.825575 -0.331201 3.143597 3.368905 0.324060 0.256260 0.182160 18.513109 -11.561134 2.533920 -3.669133 3.128000 -5.592697 4.172714 -11.761515 51.481571 -1.234708 -8.565918 1.432987 0.217760 0.058740 0.080480 -4.415256 0.425829 -7.824511 13.606608 2.683660 16.544285 -5.518779 5.088165 11.758749 3.728335 -1.799150 -9.842819 -4.694533 -2.029288 37.207457 0.975430 -4.840610 -8.257460 -15.980801 -12.775169 5.467004 -35.138609 -8.808267 -3.800717 -25.087154 -48.289515 8.730440 -3.542882 3.356937 0.141330 0.007190 0.012420 0.112500 8.453042 17.225069 5.125034 19.669553 18.263782 -4.300803 20.957817 66.153193 11.785600 2.104204 -1.786739 -0.029320 0.138060 -0.063680 -0.032940 
-0.624650 17.493170 0.028480 -1.141735 7.576481 -3.714291 -14.905121 12.156342 3.836689 -4.412985 -6.004616 -28.105217 -5.980936 6.037642 22.873786 -0.233988 3.600899 3.193926 0.328420 0.252120 0.201350 18.535971 -11.397874 2.680598 -5.050860 4.955395 -9.737915 3.435513 -13.860487 61.486399 -1.603792 -10.036481 0.965413 0.195800 0.024400 0.079290 -4.503806 0.255440 -7.972537 14.569639 1.478922 17.452822 -6.181676 3.948733 10.648804 3.612587 -1.471331 -9.856213 -4.392406 -1.929227 38.789609 1.291560 -4.754790 -8.097540 -18.345220 -13.028161 5.274480 -39.332989 -9.156167 -4.469926 -22.647477 -43.804854 6.476624 -3.527370 3.291228 0.170320 -0.023460 0.042880 0.107940 10.916392 16.766600 5.561983 26.819067 17.522281 -4.705184 23.532218 60.578139 11.256182 2.169033 -1.711744 -0.017300 0.123070 -0.077140 -0.040210 
-0.594060 17.466080 0.190340 -1.888755 7.877785 -4.816359 -14.898465 12.204467 3.780053 -2.959431 -6.082047 -27.732308 -6.641111 6.952375 26.104514 -0.122223 4.220403 2.953294 0.318850 0.232830 0.222410 18.551372 -11.201215 2.858091 -5.479307 6.564848 -14.130346 -0.337944 -14.164101 72.374337 -1.967710 -11.406035 0.565122 0.167210 -0.013010 0.079360 -4.535349 -0.027014 -8.150434 15.396858 0.141883 18.798855 -6.959386 2.796579 8.760604 3.640903 -1.000786 -9.748318 -3.812659 -1.524330 40.609025 1.076220 -3.947590 -7.538160 -22.278798 -13.632011 5.059459 -41.630663 -8.586883 -5.300043 -20.370509 -39.534219 4.683751 -3.518923 3.237827 0.199320 -0.044530 0.069890 0.088710 14.610881 16.580969 5.800981 32.862501 16.125960 -5.218818 24.241288 53.252847 9.350459 2.253352 -1.615875 -0.010940 0.100760 -0.080340 -0.058510 
